PathFileType	4	(X/Y/Z)	/Users/itak/Documents/Research/Walk-IL/dataset/trc/00502_00183.trc
DataRate	CameraRate	NumFrames	NumMarkers	Units	OrigDataRate	OrigDataStartFrame	OrigNumFrames
100.000000	100.000000	4	53	mm	100.000000	264	706
Frame#	Time	RPSI			LPSI			L3			STRN			T10			C7			CLAV			RBAK			LBAK			LSHO			LUPA			LAEL			LAOL			LWTS			LWPS			LFRA			LIFD			LHPS			LHTS			RSHO			RUPA			RAEL			RAOL			RWTS			RWPS			RFRA			RIFD			RHTS			RHPS			RBHD			LFHD			RFHD			LBHD			LHIP			RHIP			RASI			LASI			LKNE			LTHI			LANK			LTIP			LTOE			LMT1			LMT5			LHEE			RKNE			RTHI			RANK			RTIP			RTOE			RMT1			RMT5			RHEE			
		X1	Y1	Z1	X2	Y2	Z2	X3	Y3	Z3	X4	Y4	Z4	X5	Y5	Z5	X6	Y6	Z6	X7	Y7	Z7	X8	Y8	Z8	X9	Y9	Z9	X10	Y10	Z10	X11	Y11	Z11	X12	Y12	Z12	X13	Y13	Z13	X14	Y14	Z14	X15	Y15	Z15	X16	Y16	Z16	X17	Y17	Z17	X18	Y18	Z18	X19	Y19	Z19	X20	Y20	Z20	X21	Y21	Z21	X22	Y22	Z22	X23	Y23	Z23	X24	Y24	Z24	X25	Y25	Z25	X26	Y26	Z26	X27	Y27	Z27	X28	Y28	Z28	X29	Y29	Z29	X30	Y30	Z30	X31	Y31	Z31	X32	Y32	Z32	X33	Y33	Z33	X34	Y34	Z34	X35	Y35	Z35	X36	Y36	Z36	X37	Y37	Z37	X38	Y38	Z38	X39	Y39	Z39	X40	Y40	Z40	X41	Y41	Z41	X42	Y42	Z42	X43	Y43	Z43	X44	Y44	Z44	X45	Y45	Z45	X46	Y46	Z46	X47	Y47	Z47	X48	Y48	Z48	X49	Y49	Z49	X50	Y50	Z50	X51	Y51	Z51	X52	Y52	Z52	X53	Y53	Z53	

265	2.64	-1009.109436035156	954.6359252929688	-383.0919799804688	-953.8501586914062	949.3676147460938	-493.392822265625	-976.377685546875	1026.245361328125	-443.9626770019531	-767.7539672851562	1179.277099609375	-371.4662475585938	-989.3297729492188	1130.516845703125	-446.7283020019531	-940.3430786132812	1359.447998046875	-424.0476684570312	-798.44140625	1275.515258789062	-379.1328735351562	-1019.202392578125	1238.283447265625	-362.0755310058594	-938.669921875	1308.597900390625	-516.9563598632812	-822.516845703125	1351.940551757812	-554.3673706054688	-813.79638671875	1227.72705078125	-619.3500366210938	-794.3760986328125	1018.016967773438	-644.78955078125	-888.1659545898438	1009.001647949219	-614.6219482421875	-733.64306640625	827.3003540039062	-575.6126708984375	-784.834228515625	794.6104125976562	-647.131103515625	-778.950439453125	934.0621948242188	-640.8389282226562	-732.3592529296875	670.46044921875	-566.6757202148438	-765.60498046875	739.8740234375	-633.7386474609375	-717.4715576171875	749.925048828125	-590.8347778320312	-936.4105834960938	1346.65380859375	-265.7615051269531	-971.7835083007812	1279.15234375	-217.8664703369141	-973.3560180664062	1011.157165527344	-171.1361389160156	-1016.916198730469	992.46728515625	-218.4087677001953	-846.3970336914062	822.9987182617188	-183.7004241943359	-925.5191650390625	792.6283569335938	-148.7597198486328	-965.8786010742188	957.0526123046875	-163.1111145019531	-828.8978881835938	663.40478515625	-178.5826416015625	-825.9678955078125	730.7190551757812	-155.9347076416016	-895.6187744140625	721.7769775390625	-142.7443389892578	-934.6649169921875	1503.59326171875	-327.4627380371094	-762.5889892578125	1576.818237304688	-400.1925354003906	-817.0770874023438	1562.4482421875	-285.6919250488281	-880.14208984375	1516.909912109375	-476.3077697753906	-807.8574829101562	868.884521484375	-570.2570190429688	-952.8330688476562	866.8218994140625	-219.4035339355469	-836.612548828125	911.2217407226562	-247.8818817138672	-746.4957275390625	905.0067749023438	-473.5005187988281	-871.6344604492188	454.2709045410156	-531.1187744140625	-823.1283569335938	606.5712280273438	-542.1339111328125	-1056.637573242188	57.68826293945312	-574.1787719726562	-933.4243774414062	312.124267578125	-550.7045288085938	-900.1476440429688	37.82653045654297	-442.1725158691406	-982.2279663085938	45.04591369628906	-443.8193054199219	-951.995849609375	41.33345031738281	-542.4100341796875	-1123.495483398438	64.07564544677734	-533.837646484375	-851.1235961914062	489.7716674804688	-205.4306182861328	-913.5725708007812	742.712646484375	-193.7931976318359	-809.0181884765625	49.79506301879883	-198.9503021240234	-808.8018798828125	348.3873596191406	-195.9887084960938	-616.2510375976562	84.46375274658203	-152.4691009521484	-654.5218505859375	70.90567016601562	-215.4247741699219	-715.9532470703125	64.83453369140625	-139.2292938232422	-832.5546264648438	31.9814567565918	-263.6956176757812	
266	2.65	-1004.714660644531	954.7836303710938	-378.7690124511719	-950.4661254882812	949.4395141601562	-489.5415649414062	-972.9590454101562	1026.250732421875	-440.0099792480469	-764.2815551757812	1179.230102539062	-368.0276794433594	-985.9464111328125	1130.508544921875	-442.6429748535156	-937.0780639648438	1359.4541015625	-420.0877685546875	-795.0032958984375	1275.481567382812	-375.5943908691406	-1015.687438964844	1238.218383789062	-357.9221801757812	-935.5968627929688	1308.61669921875	-513.0567626953125	-819.5140991210938	1351.970092773438	-550.7427368164062	-811.1329956054688	1227.743286132812	-615.8057861328125	-791.8484497070312	1018.0634765625	-641.5714111328125	-885.5245361328125	1009.0537109375	-610.9579467773438	-730.8857421875	827.2840576171875	-572.9439697265625	-782.408447265625	794.7525634765625	-644.2437133789062	-776.5048828125	934.1204223632812	-637.79248046875	-729.2261352539062	670.4691772460938	-564.2855834960938	-763.1209716796875	740.0224609375	-631.1015625	-714.7757568359375	749.962158203125	-588.4033203125	-932.6804809570312	1346.577514648438	-261.8153076171875	-967.8430786132812	1279.009033203125	-213.8237152099609	-969.1351928710938	1010.996154785156	-167.1746673583984	-1012.70654296875	992.3055419921875	-214.4448852539062	-842.337158203125	822.603515625	-180.1917877197266	-921.5106811523438	792.277099609375	-145.2614440917969	-961.6272583007812	956.8670654296875	-159.1749877929688	-825.1505737304688	662.9534912109375	-175.509033203125	-822.0590209960938	730.1959838867188	-152.7283325195312	-891.72998046875	721.3475952148438	-139.4843597412109	-931.5369262695312	1503.4677734375	-323.6775817871094	-759.8167114257812	1577.120239257812	-396.9235534667969	-814.0068359375	1562.742797851562	-282.2966003417969	-877.3825073242188	1516.785522460938	-472.7022094726562	-804.9429321289062	868.732177734375	-566.9442138671875	-948.7775268554688	867.0462036132812	-215.6311340332031	-832.6447143554688	911.239990234375	-244.4273071289062	-743.05908203125	904.8211059570312	-470.197021484375	-869.5009765625	454.419921875	-528.6828002929688	-820.530029296875	606.5086059570312	-539.2789916992188	-1056.366088867188	58.8538818359375	-573.9794311523438	-931.909912109375	312.680908203125	-549.026123046875	-900.1078491210938	37.81439590454102	-442.2005920410156	-982.0601196289062	45.17752075195312	-443.7313537597656	-951.8037719726562	41.5050048828125	-542.3020629882812	-1123.177734375	65.59706115722656	-533.5565795898438	-847.4881591796875	489.6867370605469	-203.0201568603516	-909.5578002929688	742.8609619140625	-190.2758483886719	-808.34375	49.71339416503906	-198.9262542724609	-805.6126098632812	348.0054931640625	-194.5475158691406	-615.0791625976562	82.13146209716797	-152.3394927978516	-653.558837890625	69.19508361816406	-215.3433990478516	-715.0838012695312	63.63258361816406	-139.2061157226562	-832.140625	32.3438606262207	-263.6141662597656	
267	2.66	-1000.17822265625	955.1121826171875	-374.4234924316406	-946.9258422851562	949.6507568359375	-485.6691589355469	-969.4647216796875	1026.380249023438	-436.0690002441406	-760.7927856445312	1179.3193359375	-364.4944152832031	-982.4822387695312	1130.62255859375	-438.5598754882812	-933.7855834960938	1359.579833984375	-416.1014709472656	-791.5315551757812	1275.5810546875	-371.9653625488281	-1012.148681640625	1238.275634765625	-353.781494140625	-932.443603515625	1308.768188476562	-509.1249389648438	-816.427490234375	1352.138549804688	-547.0374755859375	-808.3899536132812	1227.907836914062	-612.1773071289062	-789.3082885742188	1018.2412109375	-638.2368774414062	-882.8781127929688	1009.278564453125	-607.1526489257812	-728.1337890625	827.3975219726562	-570.1736450195312	-780.0496826171875	795.0172729492188	-641.2200317382812	-774.0690307617188	934.3131713867188	-634.633544921875	-726.1657104492188	670.6068115234375	-561.8353881835938	-760.7031860351562	740.302490234375	-628.3563842773438	-712.1393432617188	750.1001586914062	-585.8814697265625	-928.9771728515625	1346.643920898438	-257.8442687988281	-963.9420166015625	1279.015502929688	-209.7634887695312	-964.9342651367188	1010.994506835938	-163.1800994873047	-1008.48681640625	992.2965087890625	-210.4735412597656	-838.2767333984375	822.343017578125	-176.6169891357422	-917.50146484375	792.0723876953125	-141.6980438232422	-957.3909301757812	956.8402709960938	-155.2049713134766	-821.4136962890625	662.6332397460938	-172.3741912841797	-818.1630249023438	729.8034057617188	-149.4580383300781	-887.8438110351562	721.0631103515625	-136.1575775146484	-928.3888549804688	1503.4609375	-319.8316345214844	-757.0223999023438	1577.535766601562	-393.5782775878906	-810.923095703125	1563.143920898438	-278.8270874023438	-874.5994873046875	1516.777221679688	-469.0287170410156	-801.8893432617188	868.6923828125	-563.5296630859375	-944.727294921875	867.45263671875	-211.8815155029297	-828.6781616210938	911.4239501953125	-240.8866729736328	-739.5670166015625	904.7278442382812	-466.7817077636719	-867.2307739257812	454.646484375	-526.0997314453125	-817.809814453125	606.541748046875	-536.2929077148438	-1056.046875	60.16236114501953	-573.7609252929688	-930.2742309570312	313.3448486328125	-547.2605590820312	-900.0575561523438	37.80555725097656	-442.2243041992188	-981.8592529296875	45.34584045410156	-443.6329345703125	-951.5654907226562	41.73500823974609	-542.1921997070312	-1122.789794921875	67.28457641601562	-533.2606201171875	-843.9112548828125	489.7383422851562	-200.5032043457031	-905.6029052734375	743.1783447265625	-186.7362670898438	-807.7190551757812	49.6814079284668	-198.9129638671875	-802.5144653320312	347.7518005371094	-193.0866394042969	-614.0204467773438	79.97168731689453	-152.1937866210938	-652.7107543945312	67.65467834472656	-215.2493133544922	-714.3168334960938	62.55989074707031	-139.1594390869141	-831.7788696289062	32.75371932983398	-263.5188293457031	
268	2.67	-995.6172485351562	955.6361083984375	-370.1060485839844	-943.2686767578125	950.0227661132812	-481.7903747558594	-965.8866577148438	1026.623779296875	-432.1341247558594	-757.2893676757812	1179.53955078125	-360.8607482910156	-978.943359375	1130.84765625	-434.4998779296875	-930.467529296875	1359.818725585938	-412.1010437011719	-788.0328979492188	1275.810668945312	-368.2485046386719	-1008.590637207031	1238.446166992188	-349.6676940917969	-929.2090454101562	1309.042236328125	-505.1661071777344	-813.258056640625	1352.438720703125	-543.251708984375	-805.5492553710938	1228.223266601562	-608.4752197265625	-786.7530517578125	1018.55322265625	-634.789306640625	-880.2195434570312	1009.680541992188	-603.2216796875	-725.386962890625	827.640380859375	-567.2947387695312	-777.7510986328125	795.4031982421875	-638.0604248046875	-771.6314086914062	934.643310546875	-631.3634643554688	-723.2609252929688	670.8583984375	-559.3446655273438	-758.3525390625	740.7086791992188	-625.4900512695312	-709.5698852539062	750.33203125	-583.2532958984375	-925.3101806640625	1346.851806640625	-253.8600006103516	-960.0950927734375	1279.172729492188	-205.6919097900391	-960.75390625	1011.150756835938	-159.1688079833984	-1004.265991210938	992.4375610351562	-206.5050048828125	-834.2225952148438	822.22412109375	-172.9868927001953	-913.4873657226562	792.0216674804688	-138.0654296875	-953.1704711914062	956.9727783203125	-151.2181854248047	-817.6820068359375	662.4539184570312	-169.1781463623047	-814.2744140625	729.5549926757812	-146.1271057128906	-883.9545288085938	720.9320068359375	-132.7552032470703	-925.2242431640625	1503.566650390625	-315.9420166015625	-754.2158203125	1578.055053710938	-390.1636047363281	-807.831298828125	1563.641357421875	-275.2900695800781	-871.7960815429688	1516.879150390625	-465.2953491210938	-798.6882934570312	868.7757568359375	-560.0210571289062	-940.68408203125	867.999755859375	-208.1577758789062	-824.7086181640625	911.7460327148438	-237.2552642822266	-736.0299072265625	904.7301635742188	-463.2640075683594	-864.8049926757812	454.9561462402344	-523.3770141601562	-814.9580078125	606.6799926757812	-533.1817626953125	-1055.66552734375	61.61769104003906	-573.5286254882812	-928.4957275390625	314.116455078125	-545.419921875	-899.9962768554688	37.80136489868164	-442.2423095703125	-981.6220092773438	45.55987167358398	-443.5226135253906	-951.2770385742188	42.03201293945312	-542.0827026367188	-1122.318603515625	69.1514892578125	-532.9588012695312	-840.4419555664062	489.8741455078125	-197.9020690917969	-901.7249755859375	743.6171875	-183.1943511962891	-807.1546020507812	49.67242050170898	-198.8932342529297	-799.5691528320312	347.5821838378906	-191.6027984619141	-613.0880737304688	77.97682189941406	-152.0133514404297	-651.9775390625	66.27363586425781	-215.1309967041016	-713.6572875976562	61.58931732177734	-139.0792236328125	-831.4578857421875	33.17569732666016	-263.4121398925781	
